Coordinates
version=1
nRows=26
nColumns=22
inDegrees=yes

Units are S.I. units (second, meters, Newtons, ...)
If the header above contains a line with 'inDegrees', this indicates whether rotational values are in degrees (yes) or radians (no).

endheader
time	pelvis_tilt	pelvis_list	pelvis_rotation	pelvis_tx	pelvis_ty	pelvis_tz	hip_flexion_r	hip_adduction_r	hip_rotation_r	knee_angle_r	ankle_angle_r	subtalar_angle_r	hip_flexion_l	hip_adduction_l	hip_rotation_l	knee_angle_l	ankle_angle_l	subtalar_angle_l	lumbar_extension	lumbar_bending	lumbar_rotation
      0.01000000	      5.64781579	     -3.41720285	      3.38210393	      0.18606453	      0.95369403	      1.16894200	     -5.82152262	      3.89536420	    -10.80848650	     -9.30553366	      9.56474202	      1.18768173	     -3.53317300	     -3.94463776	     -9.22975797	    -15.39188873	     20.94436843	     -9.42966238	    -12.39769087	      2.92231231	     -9.92765390
      0.02000000	      5.64178617	     -3.41784650	      3.38173611	      0.18617437	      0.95367998	      1.16889664	     -5.82427759	      3.89289620	    -10.81022356	     -9.30310314	      9.56622174	      1.18824503	     -3.53316944	     -3.94207976	     -9.23039743	    -15.39513303	     20.94255067	     -9.43037299	    -12.39404483	      2.93343801	     -9.93507446
      0.03000000	      5.62629151	     -3.42420981	      3.39360036	      0.18631093	      0.95364997	      1.16885786	     -5.82505512	      3.90116936	    -10.82148374	     -9.28791770	      9.57537630	      1.19074173	     -3.52235291	     -3.94974925	     -9.23631726	    -15.39551233	     20.94294608	     -9.43303201	    -12.37655490	      2.94831815	     -9.98291297
      0.04000000	      5.61973421	     -3.42410071	      3.39044576	      0.18643943	      0.95363233	      1.16882273	     -5.82747268	      3.89758375	    -10.82328168	     -9.28780637	      9.57583732	      1.19078666	     -3.52239061	     -3.94700806	     -9.23427122	    -15.40026439	     20.94429907	     -9.43281866	    -12.37586567	      2.95773608	     -9.98654986
      0.05000000	      5.61189048	     -3.42531473	      3.38481825	      0.18656651	      0.95361302	      1.16879838	     -5.82783158	      3.89608147	    -10.82647420	     -9.28643342	      9.57702588	      1.19066147	     -3.52128174	     -3.94585712	     -9.23289044	    -15.40448395	     20.94734315	     -9.43258913	    -12.37598191	      2.96874072	     -9.99652658
      0.06000000	      5.58399905	     -3.45015085	      3.41200056	      0.18667439	      0.95354582	      1.16876431	     -5.80671706	      3.92587341	    -10.86330766	     -9.28069418	      9.58642399	      1.18605168	     -3.46762612	     -3.98073033	     -9.21692422	    -15.45286590	     20.99559363	     -9.42954242	    -12.35368549	      3.00651021	    -10.05632680
      0.07000000	      5.57689387	     -3.44974307	      3.40202839	      0.18680717	      0.95352791	      1.16875162	     -5.80656247	      3.92163861	    -10.86445504	     -9.28138076	      9.58596413	      1.18570254	     -3.46769534	     -3.97894576	     -9.21543908	    -15.45729336	     20.99649104	     -9.42918441	    -12.35580681	      3.01774261	    -10.05890643
      0.08000000	      5.56858783	     -3.45178980	      3.38767619	      0.18692999	      0.95350851	      1.16876051	     -5.80348231	      3.92067383	    -10.86650523	     -9.28165234	      9.58614618	      1.18541534	     -3.46491686	     -3.98130729	     -9.21271657	    -15.46367673	     20.99876743	     -9.42854492	    -12.36296025	      3.02978740	    -10.06240455
      0.09000000	      5.53236268	     -3.50268656	      3.38569938	      0.18701345	      0.95341803	      1.16878358	     -5.75462466	      3.97259804	    -10.87816057	     -9.30054858	      9.59171542	      1.18694600	     -3.38610366	     -4.05096278	     -9.23642804	    -15.54741215	     21.07100761	     -9.41002156	    -12.34173771	      3.09981535	    -10.05924813
      0.10000000	      5.52276849	     -3.51231177	      3.37088747	      0.18711223	      0.95338605	      1.16879566	     -5.73593042	      3.97609418	    -10.86953648	     -9.32545021	      9.59494553	      1.19112513	     -3.36719391	     -4.06497886	     -9.21731540	    -15.57966978	     21.07933559	     -9.39942381	    -12.35809860	      3.12617605	    -10.04742249
      0.11000000	      5.48094064	     -3.55214612	      3.35752993	      0.18723389	      0.95328266	      1.16882384	     -5.67728205	      4.01007602	    -10.88375771	     -9.35703877	      9.63128788	      1.22667166	     -3.29579347	     -4.12149398	     -9.24441792	    -15.64598865	     21.14766345	     -9.34930379	    -12.33183500	      3.18775993	    -10.03109603
      0.12000000	      5.47412801	     -3.56509690	      3.34411006	      0.18733215	      0.95324600	      1.16884846	     -5.64961647	      4.01512022	    -10.87489540	     -9.40444442	      9.64380179	      1.24097543	     -3.28017235	     -4.14295677	     -9.21383499	    -15.67752305	     21.15638356	     -9.33025322	    -12.36180417	      3.21957073	    -10.00406304
      0.13000000	      5.46519172	     -3.58956292	      3.32725963	      0.18746163	      0.95319352	      1.16887432	     -5.60498591	      4.02788140	    -10.87214960	     -9.48413460	      9.68181869	      1.26851004	     -3.26880923	     -4.17857659	     -9.19228278	    -15.70268150	     21.18776969	     -9.29801598	    -12.38395327	      3.26979702	     -9.96996789
      0.14000000	      5.38577948	     -3.60942698	      3.30625962	      0.18757691	      0.95300539	      1.16891439	     -5.45172720	      4.02415543	    -10.88728352	     -9.62661985	      9.80665815	      1.43084790	     -3.14989735	     -4.21946484	     -9.24785376	    -15.78773458	     21.26553641	     -9.12414113	    -12.32538568	      3.31184385	     -9.93816210
      0.15000000	      5.38588530	     -3.62667941	      3.29551493	      0.18772515	      0.95296713	      1.16894630	     -5.39767546	      4.02778339	    -10.86800221	     -9.74717954	      9.82757205	      1.45095536	     -3.16505531	     -4.24769638	     -9.20775142	    -15.78243606	     21.28508481	     -9.09551261	    -12.36276615	      3.35820534	     -9.90436850
      0.16000000	      5.33732814	     -3.62171596	      3.25745977	      0.18791495	      0.95283213	      1.16901850	     -5.23950185	      3.98856347	    -10.89317311	     -9.97848267	      9.98957420	      1.55822346	     -3.13725737	     -4.25159678	     -9.23441074	    -15.77427810	     21.36144215	     -8.96565394	    -12.33601739	      3.36953273	     -9.81563684
      0.17000000	      5.25881954	     -3.60479128	      3.23682008	      0.18807114	      0.95265700	      1.16910304	     -5.03127274	      3.93924706	    -10.88456985	    -10.24301951	     10.13733215	      1.69401383	     -3.05317353	     -4.24872055	     -9.25829053	    -15.80134276	     21.37775671	     -8.79462393	    -12.28196733	      3.37068947	     -9.81212432
      0.18000000	      5.19482098	     -3.58326947	      3.21723561	      0.18824465	      0.95250827	      1.16920995	     -4.82409611	      3.88664389	    -10.87700779	    -10.53722174	     10.27493681	      1.78154608	     -2.99741885	     -4.23863520	     -9.26036075	    -15.80573940	     21.41351371	     -8.66295930	    -12.24986456	      3.36644206	     -9.79210850
      0.19000000	      5.12445913	     -3.54758536	      3.19040739	      0.18845284	      0.95234741	      1.16935961	     -4.58745051	      3.81800234	    -10.86994507	    -10.88123228	     10.44226710	      1.84246724	     -2.94086839	     -4.21234488	     -9.26046503	    -15.80641215	     21.44815950	     -8.54982528	    -12.20847064	      3.34382683	     -9.78509091
      0.20000000	      5.04246173	     -3.50041148	      3.16561578	      0.18865183	      0.95216020	      1.16953465	     -4.31642856	      3.73751532	    -10.86350651	    -11.26549355	     10.63826948	      1.88208110	     -2.86311936	     -4.17448992	     -9.25878255	    -15.82109606	     21.47790463	     -8.44411355	    -12.16403972	      3.30850259	     -9.79332629
      0.21000000	      4.96779704	     -3.44110209	      3.13245211	      0.18887281	      0.95196839	      1.16974839	     -4.03399469	      3.64590924	    -10.85450757	    -11.69141940	     10.85601993	      1.89121196	     -2.79568622	     -4.12249289	     -9.25899018	    -15.83776492	     21.51600628	     -8.35752104	    -12.13531435	      3.26063134	     -9.80711111
      0.22000000	      4.88981237	     -3.37304600	      3.10025351	      0.18908446	      0.95174943	      1.16999260	     -3.73320676	      3.54908024	    -10.84026248	    -12.14302529	     11.09978050	      1.85898106	     -2.70718710	     -4.06215998	     -9.24428205	    -15.88773925	     21.54417116	     -8.28278140	    -12.11223768	      3.20226355	     -9.81906591
      0.23000000	      4.84989291	     -3.28848313	      3.04970752	      0.18937678	      0.95156775	      1.17028076	     -3.47177804	      3.43801867	    -10.82070254	    -12.61085200	     11.35725641	      1.80438142	     -2.68816739	     -3.98250154	     -9.26409923	    -15.89971652	     21.59748133	     -8.24017541	    -12.13305688	      3.12857225	     -9.84134615
      0.24000000	      4.80981029	     -3.19469050	      3.00818047	      0.18967014	      0.95135912	      1.17059745	     -3.20837013	      3.32598985	    -10.78620373	    -13.08413976	     11.63992460	      1.69248798	     -2.64829680	     -3.89413488	     -9.25464735	    -15.94997783	     21.62762457	     -8.21757908	    -12.16152882	      3.04229664	     -9.86081116
      0.25000000	      4.82272427	     -3.09495008	      2.96543460	      0.19002241	      0.95120927	      1.17095600	     -3.01403175	      3.21644452	    -10.74847797	    -13.54244357	     11.86707117	      1.60268336	     -2.67585298	     -3.80336005	     -9.25326039	    -15.99068858	     21.71398230	     -8.20348561	    -12.25640444	      2.94757213	     -9.85385476
      0.26000000	      4.83536746	     -2.98416655	      2.92891717	      0.19043246	      0.95103753	      1.17133508	     -2.83025862	      3.10250772	    -10.68660572	    -13.99058483	     12.15059698	      1.47211593	     -2.69687551	     -3.70125926	     -9.24001798	    -16.05031984	     21.75979391	     -8.21091626	    -12.34741119	      2.84379056	     -9.86730159
